<svg width="38" height="24" viewBox="0 0 38 24" version="1.1" xmlns="http://www.w3.org/2000/svg" xmlns:xlink="http://www.w3.org/1999/xlink">
<title>menu</title>
<desc>Created using Figma</desc>
<g id="Canvas" transform="translate(459 -41)">
<g id="menu">
<g id="Group">
<g id="Group">
<g id="Vector">
<use xlink:href="#path0_fill" transform="translate(-459 41)" fill="#00B0AF"/>
</g>
</g>
</g>
<g id="Group">
<g id="Group">
<g id="Vector">
<use xlink:href="#path1_fill" transform="translate(-459 52.2)" fill="#00B0AF"/>
</g>
</g>
</g>
<g id="Group">
<g id="Group">
<g id="Vector">
<use xlink:href="#path2_fill" transform="translate(-459 63.4)" fill="#00B0AF"/>
</g>
</g>
</g>
</g>
</g>
<defs>
<path id="path0_fill" d="M 37.2082 0L 0.79169 0C 0.354691 0 0 0.358425 0 0.800025C 0 1.24162 0.354691 1.60005 0.79169 1.60005L 37.2083 1.60005C 37.6453 1.60005 38 1.24162 38 0.800025C 38 0.358425 37.6452 0 37.2082 0Z"/>
<path id="path1_fill" d="M 37.2082 -5.58472e-07L 0.79169 -5.58472e-07C 0.354691 -5.58472e-07 0 0.358425 0 0.800025C 0 1.24162 0.354691 1.60005 0.79169 1.60005L 37.2083 1.60005C 37.6453 1.60005 38 1.24162 38 0.800025C 38 0.358425 37.6452 -5.58472e-07 37.2082 -5.58472e-07Z"/>
<path id="path2_fill" d="M 37.2082 -5.85937e-07L 0.79169 -5.85937e-07C 0.354691 -5.85937e-07 0 0.358351 0 0.799951C 0 1.24155 0.354691 1.59997 0.79169 1.59997L 37.2083 1.59997C 37.6453 1.59997 38 1.24155 38 0.799951C 37.9999 0.358351 37.6452 -5.85937e-07 37.2082 -5.85937e-07Z"/>
</defs>
</svg>
