<svg width="40" height="40" viewBox="0 0 40 40" version="1.1" xmlns="http://www.w3.org/2000/svg" xmlns:xlink="http://www.w3.org/1999/xlink">
<title>Vector</title>
<desc>Created using Figma</desc>
<g id="Canvas" transform="translate(-635 457)">
<g id="Vector">
<use xlink:href="#path0_fill" transform="translate(635.941 -456.752)" fill="#9C9C9C"/>
</g>
</g>
<defs>
<path id="path0_fill" d="M 37.538 35.9613L 28.1414 26.1883C 30.5574 23.3162 31.8812 19.7026 31.8812 15.9406C 31.8812 7.15109 24.7301 0 15.9406 0C 7.15109 0 1.88374e-08 7.15109 1.88374e-08 15.9406C 1.88374e-08 24.7301 7.15109 31.8812 15.9406 31.8812C 19.2403 31.8812 22.3848 30.8859 25.0732 28.9966L 34.5412 38.8438C 34.9369 39.2548 35.4692 39.4814 36.0396 39.4814C 36.5795 39.4814 37.0917 39.2755 37.4805 38.9013C 38.3066 38.1063 38.333 36.7881 37.538 35.9613ZM 15.9406 4.15842C 22.4374 4.15842 27.7228 9.44376 27.7228 15.9406C 27.7228 22.4374 22.4374 27.7228 15.9406 27.7228C 9.44376 27.7228 4.15842 22.4374 4.15842 15.9406C 4.15842 9.44376 9.44376 4.15842 15.9406 4.15842Z"/>
</defs>
</svg>
